# xmcd
#
# Track frame offsets:
# 150
# 13360
# 25725
# 39657
# 53560
# 64305
# 75427
# 87132
# 101410
# 115107
#
# Disc length: 1667 seconds
#
#
# Revision: 2
# Processed by: cddbd v1.5.1PL2 Copyright (c) Steve Scherf et al.
# Submitted via: FreeRIP 2.945 
#
DISCID=7206810a
DTITLE=Lefty Frizzell - Hall Of Fame Inducted 1982
DYEAR=1999
DGENRE=Country
TTITLE0=If You've Got The Money I've Got The Time
TTITLE1=I Love You A Thousand Ways
TTITLE2=Always Late (With Your Kisses)
TTITLE3=Mom And Dad's Waltz
TTITLE4=How Long Will It Take (To Stop Lovin' You)
TTITLE5=Forever And Always
TTITLE6=Cigarettes And Coffee Blues
TTITLE7=The Long Black Veil
TTITLE8=Saginaw, Michigan
TTITLE9=Watermelon Time In Georgia
EXTD=King Music
EXTT0=
EXTT1=
EXTT2=
EXTT3=
EXTT4=
EXTT5=
EXTT6=
EXTT7=
EXTT8=
EXTT9=
PLAYORDER=
